<svg width="272" height="27" viewBox="0 0 272 27" fill="none" xmlns="http://www.w3.org/2000/svg">
<g clip-path="url(#clip0_505_451)">
<path fill-rule="evenodd" clip-rule="evenodd" d="M134.548 2.44933C134.548 1.22954 133.558 0.239258 132.338 0.239258H95.3194C94.0997 0.239258 93.1094 1.22954 93.1094 2.44933V24.0528C93.1094 25.2726 94.0997 26.2629 95.3194 26.2629H132.338C133.558 26.2629 134.548 25.2726 134.548 24.0528V2.44933Z" fill="#0E4595"/>
<path fill-rule="evenodd" clip-rule="evenodd" d="M108.479 18.7062L110.322 7.8899H113.27L111.426 18.7062H108.479ZM122.077 8.12323C121.493 7.9041 120.577 7.66895 119.434 7.66895C116.521 7.66895 114.469 9.13588 114.452 11.2384C114.435 12.7926 115.917 13.6596 117.035 14.177C118.183 14.7071 118.568 15.0452 118.563 15.5187C118.556 16.2436 117.646 16.5749 116.799 16.5749C115.619 16.5749 114.992 16.411 114.024 16.0071L113.644 15.8352L113.23 18.2566C113.919 18.5585 115.192 18.82 116.514 18.8336C119.613 18.8336 121.625 17.3834 121.648 15.1382C121.659 13.9079 120.874 12.9715 119.173 12.1995C118.142 11.6992 117.511 11.3652 117.518 10.8586C117.518 10.409 118.052 9.92825 119.206 9.92825C120.17 9.91333 120.869 10.1236 121.413 10.3426L121.677 10.4675L122.077 8.12317M129.663 7.8899H127.385C126.679 7.8899 126.151 8.08256 125.841 8.78685L121.463 18.6992H124.559C124.559 18.6992 125.065 17.3664 125.179 17.0739C125.518 17.0739 128.525 17.0785 128.955 17.0785C129.043 17.4571 129.314 18.6992 129.314 18.6992H132.049L129.663 7.8899ZM126.049 14.8741C126.293 14.2509 127.223 11.8506 127.223 11.8506C127.206 11.8794 127.465 11.2243 127.614 10.8182L127.814 11.7508C127.814 11.7508 128.378 14.3326 128.496 14.8741H126.049ZM105.976 7.88995L103.09 15.2658L102.782 13.7669C102.245 12.039 100.571 10.1669 98.6992 9.2297L101.338 18.689L104.458 18.6854L109.099 7.88995H105.976Z" fill="white"/>
<path fill-rule="evenodd" clip-rule="evenodd" d="M100.401 7.88965H95.647L95.6094 8.11469C99.3078 9.00999 101.755 11.1736 102.771 13.7732L101.737 8.8028C101.559 8.11795 101.041 7.91357 100.401 7.8897" fill="#F2AE14"/>
</g>
<g clip-path="url(#clip1_505_451)">
<path fill-rule="evenodd" clip-rule="evenodd" d="M180.624 2.44933C180.624 1.22954 179.634 0.239258 178.414 0.239258H141.396C140.176 0.239258 139.186 1.22954 139.186 2.44933V24.0528C139.186 25.2726 140.176 26.2629 141.396 26.2629H178.414C179.634 26.2629 180.624 25.2726 180.624 24.0528V2.44933Z" fill="#F4F4F4"/>
<path fill-rule="evenodd" clip-rule="evenodd" d="M173.362 23.5638C173.295 23.5654 173.24 23.5876 173.197 23.6305C173.153 23.6733 173.131 23.7269 173.129 23.7913C173.131 23.8552 173.153 23.9087 173.197 23.9518C173.24 23.9949 173.295 24.0172 173.362 24.0189C173.428 24.0172 173.482 23.9948 173.526 23.9518C173.569 23.9087 173.592 23.8552 173.594 23.7913C173.592 23.7269 173.57 23.6733 173.526 23.6305C173.483 23.5876 173.428 23.5654 173.362 23.5638ZM173.362 23.9687C173.311 23.9674 173.269 23.9502 173.236 23.9168C173.203 23.8835 173.186 23.8416 173.185 23.7914C173.186 23.7407 173.203 23.699 173.236 23.6659C173.269 23.6328 173.311 23.6157 173.362 23.6146C173.412 23.6157 173.454 23.6328 173.487 23.6659C173.52 23.699 173.537 23.7407 173.538 23.7914C173.537 23.8416 173.52 23.8835 173.487 23.9168C173.454 23.9502 173.412 23.9674 173.362 23.9687ZM173.376 23.6848H173.278V23.8962H173.323V23.817H173.344L173.408 23.8962H173.462L173.393 23.8164C173.415 23.8137 173.431 23.8067 173.443 23.7954C173.454 23.7842 173.46 23.7698 173.461 23.7523C173.46 23.7314 173.453 23.715 173.438 23.7031C173.424 23.6911 173.403 23.6851 173.376 23.6848V23.6848ZM173.375 23.7244C173.387 23.7244 173.397 23.7268 173.404 23.7314C173.411 23.7361 173.415 23.744 173.414 23.7523C173.415 23.7607 173.411 23.7688 173.404 23.7736C173.397 23.7784 173.387 23.7808 173.375 23.7808H173.323V23.7244H173.375ZM148.036 23.8737H147.553V21.6149H148.027V21.8901C148.027 21.8901 148.444 21.5537 148.691 21.5579C149.172 21.5661 149.459 21.9756 149.459 21.9756C149.459 21.9756 149.692 21.5579 150.218 21.5579C150.996 21.5579 151.11 22.2698 151.11 22.2698V23.8642H150.645V22.4596C150.645 22.4596 150.647 22.0325 150.142 22.0325C149.621 22.0325 149.573 22.4596 149.573 22.4596V23.8642H149.089V22.4501C149.089 22.4501 149.043 22.004 148.606 22.004C148.038 22.004 148.027 22.4596 148.027 22.4596L148.036 23.8737ZM162.747 21.5576C162.5 21.5534 162.084 21.8898 162.084 21.8898V21.6152H161.609V23.8735H162.093L162.084 22.4595C162.084 22.4595 162.094 22.0048 162.662 22.0048C162.768 22.0048 162.85 22.0304 162.914 22.0698V22.0679L163.072 21.6281C162.977 21.5881 162.869 21.5597 162.747 21.5576V21.5576ZM169.562 21.5576C169.314 21.5534 168.898 21.8898 168.898 21.8898V21.6152H168.423V23.8735H168.907L168.898 22.4595C168.898 22.4595 168.908 22.0048 169.476 22.0048C169.582 22.0048 169.664 22.0304 169.729 22.0698V22.0679L169.886 21.6281C169.791 21.5881 169.683 21.5597 169.562 21.5576L169.562 21.5576ZM152.674 21.5484C151.95 21.5484 151.567 22.1994 151.565 22.7434C151.563 23.3009 152.001 23.944 152.694 23.944C153.099 23.944 153.431 23.6453 153.431 23.6453L153.43 23.8753H153.906V21.6143H153.428V21.8992C153.428 21.8992 153.116 21.5484 152.674 21.5484V21.5484ZM152.767 22.0086C153.155 22.0086 153.471 22.3471 153.471 22.7638C153.471 23.1805 153.155 23.5172 152.767 23.5172C152.378 23.5172 152.064 23.1805 152.064 22.7638C152.064 22.3471 152.378 22.0085 152.766 22.0085L152.767 22.0086ZM166.56 21.5484C165.836 21.5484 165.453 22.1994 165.451 22.7434C165.449 23.3009 165.887 23.944 166.58 23.944C166.985 23.944 167.317 23.6453 167.317 23.6453L167.316 23.8753H167.792V21.6143H167.314V21.8992C167.314 21.8992 167.002 21.5484 166.56 21.5484V21.5484ZM166.653 22.0086C167.042 22.0086 167.357 22.3471 167.357 22.7638C167.357 23.1805 167.042 23.5172 166.653 23.5172C166.264 23.5172 165.95 23.1805 165.95 22.7638C165.95 22.3471 166.264 22.0085 166.653 22.0085L166.653 22.0086ZM171.132 21.5484C170.408 21.5484 170.025 22.1994 170.023 22.7434C170.021 23.3009 170.459 23.944 171.152 23.944C171.556 23.944 171.889 23.6453 171.889 23.6453L171.888 23.8753H172.364V20.7217H171.886V21.8991C171.886 21.8991 171.574 21.5484 171.132 21.5484ZM171.224 22.0086C171.613 22.0086 171.929 22.3471 171.929 22.7638C171.929 23.1805 171.613 23.5172 171.224 23.5172C170.835 23.5172 170.522 23.1805 170.522 22.7638C170.522 22.3471 170.835 22.0085 171.224 22.0085V22.0086ZM155.359 23.9496C154.866 23.9496 154.41 23.6459 154.41 23.6459L154.619 23.3232C154.619 23.3232 155.05 23.5225 155.359 23.5225C155.56 23.5225 155.896 23.4576 155.9 23.2567C155.904 23.0445 155.335 22.9815 155.335 22.9815C155.335 22.9815 154.486 22.9699 154.486 22.2697C154.486 21.8294 154.91 21.5484 155.454 21.5484C155.768 21.5484 156.355 21.8236 156.355 21.8236L156.118 22.1938C156.118 22.1938 155.664 22.0126 155.425 22.004C155.223 21.9967 154.98 22.0935 154.98 22.2697C154.98 22.7486 156.393 22.2324 156.393 23.1998C156.393 23.8345 155.817 23.9496 155.359 23.9496ZM157.178 20.96V21.6171H156.757V22.0921H157.178V23.2278C157.178 23.2278 157.141 23.996 157.967 23.996C158.195 23.996 158.642 23.8272 158.642 23.8272L158.451 23.3335C158.451 23.3335 158.273 23.4852 158.072 23.4801C157.691 23.4705 157.701 23.226 157.701 23.226V22.092H158.488V21.6171H157.701V20.9601H157.178L157.178 20.96ZM160.044 21.5761C159.267 21.5761 158.879 22.2159 158.883 22.7712C158.886 23.3422 159.236 23.9848 160.09 23.9848C160.456 23.9848 160.969 23.6638 160.969 23.6638L160.748 23.2796C160.748 23.2796 160.398 23.5282 160.09 23.5282C159.473 23.5282 159.433 22.9252 159.433 22.9252H161.084C161.084 22.9252 161.207 21.5761 160.044 21.5761L160.044 21.5761ZM159.973 22.0197C159.991 22.0185 160.011 22.0197 160.031 22.0197C160.611 22.0197 160.607 22.5689 160.607 22.5689H159.433C159.433 22.5689 159.406 22.0519 159.973 22.0197ZM164.953 23.2738L165.174 23.7168C165.174 23.7168 164.824 23.945 164.43 23.945C163.615 23.945 163.162 23.3311 163.162 22.7504C163.162 21.8376 163.883 21.5692 164.37 21.5692C164.812 21.5692 165.195 21.8242 165.195 21.8242L164.946 22.2671C164.946 22.2671 164.796 22.0323 164.356 22.0323C163.917 22.0323 163.685 22.411 163.685 22.7705C163.685 23.1733 163.955 23.5154 164.363 23.5154C164.683 23.5154 164.953 23.2738 164.953 23.2738Z" fill="black"/>
<path fill-rule="evenodd" clip-rule="evenodd" d="M173.692 15.6345V15.3295H173.612L173.52 15.5392L173.429 15.3295H173.349V15.6345H173.406V15.4044L173.491 15.6027H173.55L173.635 15.4038V15.6345H173.692ZM173.188 15.6345V15.3815H173.289V15.33H173.03V15.3815H173.132V15.6345H173.188ZM173.708 11.0999C173.708 15.8198 169.891 19.646 165.183 19.646C160.475 19.646 156.658 15.8198 156.658 11.0999C156.658 6.37995 160.475 2.55371 165.183 2.55371C169.891 2.55371 173.708 6.37995 173.708 11.0999Z" fill="#F79F1A"/>
<path fill-rule="evenodd" clip-rule="evenodd" d="M163.19 11.0999C163.19 15.8198 159.373 19.646 154.665 19.646C149.957 19.646 146.141 15.8198 146.141 11.0999C146.141 6.37995 149.957 2.55371 154.665 2.55371C159.373 2.55371 163.19 6.37995 163.19 11.0999Z" fill="#EA001B"/>
<path fill-rule="evenodd" clip-rule="evenodd" d="M159.924 4.37109C157.935 5.93566 156.658 8.36679 156.658 11.0979C156.658 13.829 157.935 16.2621 159.924 17.8266C161.913 16.2621 163.19 13.829 163.19 11.0979C163.19 8.36679 161.913 5.93566 159.924 4.37109H159.924Z" fill="#FF5F01"/>
</g>
<g clip-path="url(#clip2_505_451)">
<path fill-rule="evenodd" clip-rule="evenodd" d="M226.753 2.44933C226.753 1.22954 225.763 0.239258 224.543 0.239258H187.525C186.305 0.239258 185.314 1.22954 185.314 2.44933V24.0528C185.314 25.2726 186.305 26.2629 187.525 26.2629H224.543C225.763 26.2629 226.753 25.2726 226.753 24.0528V2.44933Z" fill="#2557D6"/>
<path fill-rule="evenodd" clip-rule="evenodd" d="M185.314 12.4592H187.305L187.754 11.3812H188.759L189.206 12.4592H193.122V11.6351L193.472 12.4628H195.505L195.855 11.6228V12.4592H205.587L205.583 10.6897H205.771C205.903 10.6943 205.941 10.7064 205.941 10.9232V12.4592H210.975V12.0473C211.381 12.2639 212.013 12.4592 212.844 12.4592H214.961L215.415 11.3813H216.419L216.863 12.4592H220.943V11.4353L221.562 12.4592H224.832V5.69043H221.595V6.48981L221.142 5.69043H217.821V6.48981L217.405 5.69043H212.919C212.168 5.69043 211.508 5.7948 210.975 6.08565V5.69043H207.88V6.08565C207.54 5.78585 207.078 5.69043 206.564 5.69043H195.255L194.496 7.43865L193.717 5.69043H190.155V6.48981L189.763 5.69043H186.725L185.314 8.90863V12.4592ZM197.879 11.4829H196.684L196.68 7.68187L194.991 11.4828H193.968L192.274 7.6785V11.4828H189.905L189.457 10.4003H187.032L186.58 11.4828H185.314L187.401 6.62965H189.131L191.113 11.2246V6.62965H193.014L194.539 9.92194L195.939 6.62965H197.879V11.4828H197.879L197.879 11.4829ZM189.059 9.39307L188.262 7.45832L187.469 9.39307H189.059ZM202.631 11.4828H198.74V6.6296H202.631V7.64021H199.905V8.51501H202.566V9.50982H199.905V10.479H202.631V11.4828H202.631ZM208.115 7.93669C208.115 8.71044 207.597 9.11024 207.295 9.23025C207.55 9.32683 207.767 9.49755 207.871 9.63894C208.035 9.88034 208.064 10.0959 208.064 10.5294V11.4828H206.889L206.884 10.8707C206.884 10.5787 206.912 10.1588 206.7 9.92526C206.53 9.75453 206.271 9.71751 205.851 9.71751H204.601V11.4828H203.436V6.6296H206.115C206.711 6.6296 207.149 6.64524 207.526 6.86204C207.894 7.07885 208.115 7.39533 208.115 7.93669ZM206.643 8.65729C206.483 8.75409 206.293 8.75729 206.067 8.75729H204.651V7.67933H206.086C206.289 7.67933 206.501 7.68839 206.638 7.76685C206.789 7.83757 206.883 7.98802 206.883 8.19588C206.883 8.40804 206.794 8.57872 206.643 8.65729ZM209.984 11.4828H208.795V6.6296H209.984V11.4828ZM223.782 11.4828H222.131L219.923 7.84017V11.4828H217.551L217.098 10.4003H214.678L214.238 11.4828H212.875C212.308 11.4828 211.591 11.358 211.185 10.946C210.776 10.5339 210.563 9.97576 210.563 9.09322C210.563 8.37346 210.69 7.71546 211.191 7.19549C211.568 6.80817 212.157 6.6296 212.96 6.6296H214.088V7.66949H212.984C212.559 7.66949 212.319 7.73248 212.087 7.95697C211.889 8.16134 211.753 8.54761 211.753 9.05631C211.753 9.57623 211.856 9.95117 212.073 10.196C212.252 10.3881 212.578 10.4463 212.885 10.4463H213.408L215.05 6.62977H216.795L218.768 11.2201V6.62982H220.541L222.589 10.0098V6.62982H223.782V11.4828L223.782 11.4828ZM216.701 9.39313L215.895 7.45838L215.093 9.39313H216.701ZM226.751 19.232C226.468 19.6441 225.916 19.853 225.17 19.853H222.92V18.8121H225.161C225.383 18.8121 225.539 18.7829 225.632 18.6919C225.721 18.6106 225.771 18.4955 225.77 18.3753C225.77 18.2339 225.713 18.1216 225.628 18.0543C225.543 17.9802 225.42 17.9465 225.217 17.9465C224.123 17.9095 222.759 17.9802 222.759 16.444C222.759 15.74 223.208 14.9988 224.43 14.9988H226.751V14.033H224.595C223.944 14.033 223.472 14.1882 223.137 14.4294V14.033H219.948C219.438 14.033 218.839 14.1589 218.556 14.4294V14.033H212.862V14.4294C212.409 14.1038 211.644 14.033 211.291 14.033H207.535V14.4294C207.176 14.0836 206.379 14.033 205.893 14.033H201.689L200.727 15.0696L199.826 14.033H193.546V20.8064H199.708L200.699 19.7533L201.633 20.8064L205.431 20.8098V19.2164H205.804C206.308 19.2241 206.902 19.2039 207.427 18.9783V20.8063H210.559V19.0409H210.71C210.903 19.0409 210.922 19.0488 210.922 19.2407V20.8061H220.439C221.043 20.8061 221.674 20.6521 222.024 20.3727V20.8061H225.043C225.671 20.8061 226.284 20.7184 226.751 20.4939V19.232ZM207.882 16.6267C207.882 17.9752 206.872 18.2536 205.854 18.2536H204.4V19.8818H202.136L200.701 18.2748L199.211 19.8818H194.596V15.0274H199.282L200.715 16.6186L202.197 15.0274H205.919C206.843 15.0274 207.882 15.2823 207.882 16.6267H207.882ZM198.621 18.8607H195.756V17.8949H198.314V16.9044H195.756V16.0219H198.677L199.951 17.4366L198.621 18.8607ZM203.236 19.4166L201.447 17.4392L203.236 15.5247V19.4166ZM205.881 17.2581H204.375V16.0219H205.894C206.315 16.0219 206.607 16.1926 206.607 16.6171C206.607 17.0369 206.328 17.2581 205.881 17.2581ZM213.767 15.0274H217.655V16.0314H214.928V16.9139H217.589V17.9043H214.928V18.8701L217.655 18.8746V19.8818H213.767V15.0274ZM212.273 17.6259C212.532 17.7212 212.744 17.892 212.843 18.0334C213.008 18.2704 213.032 18.4916 213.036 18.9195V19.8818H211.867V19.2745C211.867 18.9824 211.895 18.55 211.679 18.3242C211.508 18.1504 211.249 18.1088 210.824 18.1088H209.579V19.8818H208.408V15.0274H211.098C211.688 15.0274 212.117 15.0534 212.5 15.2565C212.867 15.4777 213.098 15.7807 213.098 16.3345C213.098 17.1093 212.579 17.5047 212.273 17.6259V17.6259ZM211.614 17.0122C211.458 17.1043 211.266 17.1122 211.039 17.1122H209.624V16.0219H211.058C211.266 16.0219 211.473 16.0263 211.614 16.1096C211.765 16.1882 211.856 16.3386 211.856 16.5462C211.856 16.754 211.765 16.9213 211.614 17.0122ZM222.131 17.3214C222.358 17.5551 222.479 17.8503 222.479 18.3499C222.479 19.3941 221.824 19.8816 220.649 19.8816H218.38V18.8407H220.64C220.861 18.8407 221.018 18.8116 221.116 18.7205C221.196 18.6454 221.253 18.5364 221.253 18.4039C221.253 18.2625 221.191 18.1502 221.111 18.0829C221.022 18.0089 220.899 17.9752 220.696 17.9752C219.607 17.9381 218.243 18.0089 218.243 16.4727C218.243 15.7686 218.687 15.0274 219.908 15.0274H222.244V16.0606H220.107C219.895 16.0606 219.757 16.0685 219.64 16.1483C219.512 16.2269 219.465 16.3436 219.465 16.4975C219.465 16.6807 219.573 16.8053 219.72 16.8591C219.843 16.9017 219.975 16.9142 220.173 16.9142L220.8 16.931C221.433 16.9464 221.867 17.0553 222.131 17.3214ZM226.753 16.0219H224.63C224.418 16.0219 224.277 16.0298 224.159 16.1096C224.036 16.1882 223.988 16.3049 223.988 16.4589C223.988 16.642 224.092 16.7666 224.243 16.8205C224.366 16.863 224.498 16.8755 224.692 16.8755L225.324 16.8923C225.961 16.908 226.386 17.017 226.645 17.283C226.692 17.32 226.721 17.3616 226.753 17.4032V16.0219Z" fill="white"/>
</g>
<g clip-path="url(#clip3_505_451)">
<path fill-rule="evenodd" clip-rule="evenodd" d="M42.4467 2.44933C42.4467 1.22954 41.4564 0.239258 40.2366 0.239258H3.21788C1.99809 0.239258 1.00781 1.22954 1.00781 2.44933V24.0528C1.00781 25.2726 1.99809 26.2629 3.21788 26.2629H40.2366C41.4564 26.2629 42.4467 25.2726 42.4467 24.0528V2.44933Z" fill="#635BFF"/>
<path fill-rule="evenodd" clip-rule="evenodd" d="M37.0247 13.4619C37.0247 11.2878 35.9707 9.57227 33.9561 9.57227C31.933 9.57227 30.709 11.2878 30.709 13.4449C30.709 16.0012 32.154 17.2921 34.2281 17.2921C35.2396 17.2921 36.0047 17.0628 36.5827 16.74V15.0415C36.0047 15.3303 35.3416 15.5086 34.5001 15.5086C33.6756 15.5086 32.9446 15.2199 32.8511 14.2177H37.0077C37.0077 14.1073 37.0247 13.6657 37.0247 13.4619ZM32.8256 12.6551C32.8256 11.6954 33.4121 11.2963 33.9476 11.2963C34.4661 11.2963 35.0186 11.6954 35.0186 12.6551H32.8256Z" fill="#F4F4F4"/>
<path fill-rule="evenodd" clip-rule="evenodd" d="M27.4279 9.57227C26.5948 9.57227 26.0593 9.96293 25.7618 10.2347L25.6513 9.70815H23.7812V19.6106L25.9063 19.1605L25.9148 16.757C26.2208 16.9778 26.6713 17.2921 27.4194 17.2921C28.9409 17.2921 30.3265 16.0691 30.3265 13.377C30.318 10.9141 28.9154 9.57227 27.4279 9.57227ZM26.9179 15.4237C26.4163 15.4237 26.1188 15.2453 25.9148 15.0245L25.9063 11.8738C26.1273 11.6275 26.4333 11.4576 26.9179 11.4576C27.6914 11.4576 28.2269 12.3239 28.2269 13.4364C28.2269 14.5744 27.6999 15.4237 26.9179 15.4237Z" fill="#F4F4F4"/>
<path fill-rule="evenodd" clip-rule="evenodd" d="M20.8574 9.0703L22.991 8.6117V6.8877L20.8574 7.3378V9.0703Z" fill="#F4F4F4"/>
<path d="M22.991 9.71582H20.8574V17.1469H22.991V9.71582Z" fill="#F4F4F4"/>
<path fill-rule="evenodd" clip-rule="evenodd" d="M18.5697 10.3451L18.4337 9.71669H16.5977V17.1477H18.7227V12.1116C19.2242 11.4577 20.0743 11.5766 20.3378 11.67V9.71669C20.0658 9.61478 19.0712 9.42794 18.5697 10.3451Z" fill="#F4F4F4"/>
<path fill-rule="evenodd" clip-rule="evenodd" d="M14.3208 7.87305L12.2468 8.31466L12.2383 15.1173C12.2383 16.3742 13.1818 17.2999 14.4399 17.2999C15.1369 17.2999 15.6469 17.1725 15.9274 17.0196V15.2956C15.6554 15.406 14.3123 15.7967 14.3123 14.5398V11.5249H15.9274V9.71595H14.3123L14.3208 7.87305Z" fill="#F4F4F4"/>
<path fill-rule="evenodd" clip-rule="evenodd" d="M8.5744 11.8738C8.5744 11.5426 8.84641 11.4152 9.29692 11.4152C9.94294 11.4152 10.759 11.6105 11.405 11.9587V9.96293C10.6995 9.68267 10.0024 9.57227 9.29692 9.57227C7.57137 9.57227 6.42383 10.4725 6.42383 11.9757C6.42383 14.3196 9.65393 13.946 9.65393 14.9566C9.65393 15.3473 9.31392 15.4746 8.83791 15.4746C8.13238 15.4746 7.23135 15.1859 6.51733 14.7952V16.8165C7.30786 17.1562 8.10688 17.3006 8.83791 17.3006C10.606 17.3006 11.8215 16.4258 11.8215 14.9056C11.813 12.3748 8.5744 12.8249 8.5744 11.8738Z" fill="#F4F4F4"/>
</g>
<g clip-path="url(#clip4_505_451)">
<path fill-rule="evenodd" clip-rule="evenodd" d="M88.5248 2.44933C88.5248 1.22954 87.5345 0.239258 86.3147 0.239258H49.296C48.0762 0.239258 47.0859 1.22954 47.0859 2.44933V24.0528C47.0859 25.2726 48.0762 26.2629 49.296 26.2629H86.3147C87.5345 26.2629 88.5248 25.2726 88.5248 24.0528V2.44933Z" fill="#F4F4F4"/>
<g clip-path="url(#clip5_505_451)">
<path d="M58.8304 8.9192C58.4989 9.31149 57.9685 9.6209 57.4381 9.57669C57.3718 9.04628 57.6315 8.48271 57.9354 8.13462C58.2669 7.73129 58.847 7.44398 59.3167 7.42188C59.3719 7.97439 59.1564 8.51586 58.8304 8.9192ZM59.3111 9.68167C58.5431 9.63747 57.8856 10.1182 57.521 10.1182C57.1508 10.1182 56.5927 9.70377 55.985 9.71482C55.1949 9.72587 54.46 10.1734 54.0567 10.8862C53.2279 12.3117 53.8412 14.4223 54.6424 15.5826C55.0346 16.1572 55.5043 16.7871 56.1231 16.765C56.7088 16.7429 56.9408 16.3837 57.648 16.3837C58.3608 16.3837 58.5652 16.765 59.184 16.7539C59.825 16.7429 60.2283 16.1793 60.6206 15.6047C61.0681 14.9527 61.2505 14.3173 61.2615 14.2841C61.2505 14.2731 60.0239 13.8035 60.0128 12.389C60.0018 11.2066 60.9797 10.6431 61.0239 10.6099C60.4714 9.79218 59.6095 9.70377 59.3111 9.68167ZM63.7478 8.07937V16.6931H65.0849V13.7482H66.9359C68.6266 13.7482 69.8145 12.5879 69.8145 10.9083C69.8145 9.22861 68.6487 8.07937 66.9801 8.07937H63.7478ZM65.0849 9.20651H66.6265C67.7868 9.20651 68.4498 9.82533 68.4498 10.9138C68.4498 12.0022 67.7868 12.6266 66.6209 12.6266H65.0849V9.20651ZM72.2566 16.7594C73.0964 16.7594 73.8755 16.334 74.2291 15.6599H74.2567V16.6931H75.4944V12.4056C75.4944 11.1624 74.4998 10.3613 72.9694 10.3613C71.5494 10.3613 70.4996 11.1735 70.4609 12.2896H71.6654C71.7649 11.7591 72.2566 11.4111 72.9307 11.4111C73.7484 11.4111 74.207 11.7923 74.207 12.494V12.9692L72.5384 13.0686C70.9858 13.1625 70.146 13.7979 70.146 14.903C70.146 16.0191 71.0135 16.7594 72.2566 16.7594ZM72.6158 15.7373C71.903 15.7373 71.4499 15.3947 71.4499 14.8698C71.4499 14.3283 71.8864 14.0134 72.7207 13.9637L74.207 13.8698V14.356C74.207 15.1627 73.5219 15.7373 72.6158 15.7373ZM77.1464 19.0358C78.4503 19.0358 79.0636 18.5385 79.5996 17.0302L81.9478 10.4441H80.5886L79.0139 15.5328H78.9863L77.4116 10.4441H76.0137L78.2791 16.7152L78.1575 17.0965C77.9531 17.7429 77.6216 17.9915 77.0304 17.9915C76.9254 17.9915 76.721 17.9805 76.6381 17.9694V19.0027C76.7154 19.0248 77.047 19.0358 77.1464 19.0358Z" fill="black"/>
</g>
</g>
<g clip-path="url(#clip6_505_451)">
<path fill-rule="evenodd" clip-rule="evenodd" d="M234.193 0.238281C232.614 0.238281 231.334 1.51764 231.334 3.09537V23.4048C231.334 24.9828 232.614 26.2619 234.193 26.2619H269.03C270.608 26.2619 271.889 24.9825 271.889 23.4048V3.09537C271.889 1.51733 270.609 0.238281 269.03 0.238281L234.193 0.238281Z" fill="#F7F7F7"/>
<path d="M258.142 11.1072C257.991 12.0981 257.233 12.0981 256.501 12.0981H256.084L256.376 10.248C256.394 10.1363 256.49 10.0541 256.604 10.0541H256.795C257.294 10.0541 257.765 10.0541 258.008 10.3377C258.153 10.5075 258.197 10.7595 258.142 11.1072ZM257.823 8.52185H255.06C254.871 8.52195 254.709 8.66002 254.68 8.84571L253.563 15.9239C253.561 15.9357 253.561 15.9476 253.561 15.9595C253.561 16.0857 253.664 16.1896 253.791 16.1898H255.209C255.341 16.1898 255.453 16.0937 255.474 15.9635L255.791 13.9561C255.82 13.7699 255.981 13.6321 256.17 13.6321H257.044C258.865 13.6321 259.915 12.7527 260.189 11.0083C260.313 10.2459 260.194 9.64652 259.837 9.22693C259.444 8.76562 258.748 8.52148 257.823 8.52148" fill="#009CDE"/>
<path d="M238.433 11.1072C238.282 12.0981 237.524 12.0981 236.791 12.0981H236.375L236.667 10.248C236.685 10.1363 236.781 10.0541 236.894 10.0541H237.086C237.584 10.0541 238.055 10.0541 238.298 10.3377C238.444 10.5075 238.488 10.7595 238.433 11.1072ZM238.114 8.52185H235.351C235.162 8.52185 235.001 8.65924 234.971 8.84571L233.854 15.9239C233.852 15.9358 233.852 15.9478 233.852 15.9599C233.852 16.086 233.955 16.1898 234.082 16.1898H235.401C235.59 16.1898 235.751 16.0524 235.78 15.8659L236.082 13.9564C236.111 13.7699 236.272 13.6325 236.461 13.6325H237.335C239.156 13.6325 240.206 12.7527 240.481 11.0083C240.604 10.2459 240.485 9.64652 240.128 9.22693C239.735 8.76562 239.039 8.52148 238.114 8.52148M244.529 13.6485C244.401 14.4038 243.801 14.911 243.036 14.911C242.652 14.911 242.345 14.7875 242.147 14.554C241.951 14.3226 241.878 13.9927 241.94 13.6257C242.059 12.8769 242.669 12.3537 243.423 12.3537C243.798 12.3537 244.103 12.4783 244.305 12.7139C244.507 12.9513 244.587 13.283 244.529 13.6485ZM246.373 11.0752H245.05C244.937 11.0751 244.839 11.1582 244.822 11.2699L244.764 11.6393L244.672 11.5055C244.385 11.0902 243.746 10.951 243.109 10.951C241.647 10.951 240.398 12.0579 240.155 13.6097C240.029 14.3846 240.208 15.1245 240.648 15.641C241.052 16.1154 241.628 16.3129 242.314 16.3129C243.493 16.3129 244.146 15.557 244.146 15.557L244.087 15.9243C244.085 15.9362 244.084 15.9482 244.084 15.9602C244.084 16.0864 244.188 16.1901 244.314 16.1901C244.314 16.1901 244.315 16.1901 244.315 16.1901H245.506C245.695 16.1901 245.856 16.0531 245.885 15.8663L246.601 11.3414C246.603 11.3296 246.604 11.3177 246.604 11.3059C246.604 11.1795 246.5 11.0756 246.373 11.0756C246.373 11.0756 246.373 11.0756 246.373 11.0756" fill="#003087"/>
<path d="M264.236 13.6487C264.107 14.404 263.508 14.9112 262.742 14.9112C262.359 14.9112 262.051 14.7877 261.854 14.5542C261.658 14.3228 261.584 13.9929 261.646 13.6259C261.765 12.8771 262.375 12.3539 263.129 12.3539C263.505 12.3539 263.81 12.4785 264.011 12.7141C264.214 12.9515 264.294 13.2832 264.236 13.6487ZM266.08 11.0754H264.757C264.643 11.0753 264.546 11.1584 264.529 11.2701L264.471 11.6395L264.378 11.5057C264.092 11.0904 263.453 10.9512 262.815 10.9512C261.354 10.9512 260.105 12.0581 259.862 13.6099C259.735 14.3848 259.915 15.1247 260.355 15.6412C260.759 16.1156 261.335 16.3131 262.021 16.3131C263.2 16.3131 263.853 15.5572 263.853 15.5572L263.794 15.9245C263.792 15.9366 263.791 15.9488 263.791 15.9612C263.791 16.0869 263.895 16.1903 264.021 16.1903C264.021 16.1903 264.021 16.1903 264.021 16.1903H265.212C265.401 16.1903 265.562 16.0533 265.592 15.8665L266.307 11.3416C266.309 11.3298 266.31 11.3179 266.31 11.306C266.31 11.1797 266.206 11.0758 266.08 11.0758C266.08 11.0758 266.079 11.0758 266.079 11.0758" fill="#009CDE"/>
<path d="M253.419 11.0746H252.089C251.962 11.0746 251.843 11.1375 251.772 11.2429L249.937 13.9422L249.159 11.3483C249.111 11.1863 248.961 11.0744 248.791 11.0742H247.484C247.358 11.0743 247.254 11.1782 247.254 11.3045C247.254 11.3298 247.258 11.3549 247.266 11.3789L248.731 15.6734L247.353 17.615C247.326 17.6538 247.311 17.7002 247.311 17.7477C247.311 17.874 247.415 17.9779 247.541 17.978H248.87C248.996 17.978 249.114 17.9165 249.185 17.8132L253.608 11.4358C253.635 11.3973 253.649 11.3514 253.649 11.3045C253.649 11.1784 253.546 11.0746 253.419 11.0746Z" fill="#003087"/>
<path d="M267.641 8.71715L266.507 15.9249C266.505 15.9367 266.504 15.9486 266.504 15.9605C266.504 16.0868 266.608 16.1907 266.734 16.1907H267.875C268.064 16.1907 268.225 16.0534 268.254 15.8669L269.372 8.78831C269.374 8.77641 269.375 8.76441 269.375 8.75236C269.375 8.62624 269.271 8.52246 269.145 8.52246C269.145 8.52246 269.145 8.52246 269.145 8.52246H267.869C267.756 8.52215 267.658 8.60521 267.641 8.71678" fill="#009CDE"/>
</g>
<defs>
<clipPath id="clip0_505_451">
<rect width="41.4388" height="26.0236" fill="white" transform="translate(93.1074 0.240234)"/>
</clipPath>
<clipPath id="clip1_505_451">
<rect width="41.4388" height="26.0236" fill="white" transform="translate(139.184 0.240234)"/>
</clipPath>
<clipPath id="clip2_505_451">
<rect width="41.5493" height="26.0236" fill="white" transform="translate(185.258 0.240234)"/>
</clipPath>
<clipPath id="clip3_505_451">
<rect width="41.5493" height="26.0236" fill="white" transform="translate(0.953125 0.240234)"/>
</clipPath>
<clipPath id="clip4_505_451">
<rect width="41.5493" height="26.0236" fill="white" transform="translate(47.0293 0.240234)"/>
</clipPath>
<clipPath id="clip5_505_451">
<rect width="28.2889" height="11.6139" fill="white" transform="translate(53.6602 7.42188)"/>
</clipPath>
<clipPath id="clip6_505_451">
<rect width="40.5548" height="26.0236" fill="white" transform="translate(231.334 0.240234)"/>
</clipPath>
</defs>
</svg>
