<?xml version="1.0" encoding="utf-8"?>
<!-- Generator: Adobe Illustrator 27.0.0, SVG Export Plug-In . SVG Version: 6.00 Build 0)  -->
<svg version="1.1" id="Calque_1" xmlns="http://www.w3.org/2000/svg" xmlns:xlink="http://www.w3.org/1999/xlink" x="0px" y="0px"
	 viewBox="0 0 841.9 595.3" style="enable-background:new 0 0 841.9 595.3;" xml:space="preserve">
<style type="text/css">
	.st0{fill:#FFFFFF;}
</style>
<g>
	<path class="st0" d="M270.3,378.3c-15.6,0.3-31.2,0.2-46.7,1.2c-19.6,1.2-39.2,2.8-58.7,5c-13.5,1.5-26.7,4.6-40.2,6.4
		c-24.7,3.3-44.2-6-57.6-26.7c-9.4-14.5-16.7-30-20.8-47c-5-20.2-10.7-40.1-15.8-60.3c-1.9-7.6-3.2-15.3-1.9-23.2
		c1.1-7.1,4.6-12.8,10-17.3c8.5-7.1,18.5-11.5,28.6-15.5c14.5-5.7,29.7-9,45.1-11.3c30.9-4.5,61.9-5.3,93-3.9
		c18.2,0.8,34.1,7.8,47.8,19.6c22.6,19.5,39.6,43,51.4,70.3c4.8,11.1,8.9,22.4,11.7,34.1c1.5,6.3,2,12.7-0.4,18.9
		c-2.9,7.4-9.1,10.8-16.5,11.4c-8.1,0.6-16.3,0.1-24.4,0.2c-24.2,0.4-48.5,0.4-72.7,1.6c-20.5,1-41,3.5-61.4,5.3
		c-4.2,0.4-8.4,1.2-12.7,1.3c-8.1,0.3-12-5.2-9.4-13.1c1.9-5.8,6.7-7.8,12.2-8.4c17.3-1.9,34.6-3.9,51.9-5.5
		c25.2-2.3,50.4-2.9,75.6-2.5c9.2,0.1,18.5,0.2,27.7,0.3c1.1,0,2.2-0.1,3.2-0.2c7.1-0.8,9.9-7.1,5.8-13.2c-1.9-2.9-4.7-4.6-8-4.9
		c-5.6-0.4-11.3-0.5-17-0.5c-19.3,0.3-38.7,0.1-58,1.1c-19.8,1-39.5,3-59.2,4.8c-9.3,0.9-18.5,2.1-27.7,3.6
		c-16.1,2.6-26.3,12.1-29.6,27.4c-3.2,14.6,9.3,30.9,24.3,30.9c7.3,0,14.5-1.6,21.8-2.4c16.8-2,33.5-4.4,50.3-6
		c18.8-1.7,37.7-3.1,56.6-3.9c17.3-0.7,34.7,0.1,52-0.9c9.2-0.5,16,3.1,22.7,8.3c3.6,2.9,4.7,6.7,3.3,10.4c-1.5,3.9-4.4,5.8-9.2,5.7
		c-15.6-0.3-31.1-0.7-46.7-1.1C270.3,378.5,270.3,378.4,270.3,378.3z M142.4,223.2c-7.5-0.1-13,2.4-17.8,6.6
		c-3.1,2.7-4.5,6.3-4.7,10.4c-0.3,7.7,3.6,13.2,9.3,17.5c3.3,2.5,7.2,4.5,11,6.3c10.3,5.1,20.7,9.9,31,14.9c2.1,1,3.8,0.8,5.4-0.9
		c9.1-9.6,18.3-19.1,27.4-28.7c3.7-4,5.5-9,4.5-14.5c-1.5-8.7-6.6-14.3-15.2-16.6c-11.2-3-21.4,0.3-27.2,8.5c-3,4.3-4.1,4.6-8.5,1.7
		C152.6,225.3,147.3,223.2,142.4,223.2z M238.1,211.4c0.2-0.1,0.3-0.1,0.4-0.2c0,0,0-0.2,0-0.2c-7.7-8.4-16.7-14.4-28.3-15.1
		c-6.4-0.4-12.9,0.4-19.4,0.7c-1.8,0.1-3.6,0.3-5.4,0.5C203.2,201.2,222.1,201,238.1,211.4z"/>
</g>
<g>
	<path class="st0" d="M638.6,377.2c-2,1.5-3.5,2.9-5.3,4c-11.9,8-30.2,2.5-35-12.2c-3.8-11.5-3.2-22.4,3.1-32.9
		c7.1-11.6,22.1-16.2,34.5-10.5c0.7,0.3,1.3,0.6,2.3,1c0.1-1,0.2-1.8,0.2-2.6c0-7.2-0.1-14.3,0-21.5c0-2.4-0.9-3.5-3.2-3.8
		c-0.9-0.1-1.7-0.9-2.6-1.4c0.7-0.9,1.2-2.2,2.1-2.5c6.2-2.1,12.4-4.2,18.8-6c4.5-1.3,5.6-0.2,5.6,4.4c0,26.9,0,53.8,0,80.8
		c0,2.9,0.6,4.8,3.7,5.5c0.8,0.2,1.3,1.4,1.9,2.2c-0.8,0.6-1.6,1.6-2.4,1.6c-6,0.1-12,0.1-18,0C640.6,383.2,639.2,380.5,638.6,377.2
		z M638.5,352.5C638.5,352.5,638.5,352.5,638.5,352.5c0-5.8,0.1-11.5-0.1-17.2c0-1.3-0.8-2.9-1.8-3.7c-5.6-4.5-12.9-2.7-16.1,3.8
		c-3.6,7.4-3.7,15.3-3.2,23.2c0.3,4.6,0.6,9.3,3.2,13.5c2.1,3.5,5,5.5,9.3,5.1c5.1-0.4,8.7-4.1,8.7-9.1
		C638.5,362.8,638.5,357.7,638.5,352.5z"/>
	<path class="st0" d="M404.1,381.6c0,8.4-0.1,16.4,0.1,24.3c0,0.9,1.3,1.9,2.2,2.5c0.6,0.5,1.7,0.3,2.3,0.7c0.6,0.5,1.3,1.4,1.3,2.1
		c0,0.5-1,1.1-1.7,1.4c-0.5,0.2-1.1,0.1-1.7,0.1c-8.5,0-17,0-25.5,0c-1.3,0-3.1,0.2-3-1.6c0-0.9,1.4-2.2,2.5-2.4c2.8-0.8,3-2.7,3-5
		c0-20.3,0-40.6,0-61c0-2.1,0-4.2,0-6.2c0-1.8-0.7-2.6-2.6-2.9c-1.1-0.2-2-1.3-3.1-1.9c0.9-0.7,1.6-1.8,2.7-2.2
		c5.6-2,11.3-3.9,17-5.7c4.4-1.4,5.8-0.3,6,4.3c0,0.8,0.1,1.6,0.2,2.5c2.9-1.8,5.4-3.8,8.3-5.2c12.3-5.9,27.1,0.3,31.8,13
		c4,11,3.8,21.7-1.9,32.1c-7.1,13.1-22.4,18.1-36.1,11.9C405.4,382.2,405,382,404.1,381.6z M403.9,355.6
		C404,355.6,404,355.6,403.9,355.6c0.1,5.1,0.1,10.2,0.1,15.2c-0.1,5.3,2.5,8.1,7.9,8.2c5.7,0.2,10-3.6,11.5-10
		c1.8-7.8,2.1-15.6,1-23.5c-0.6-4-1.6-7.8-4.1-11.1c-2.4-3.2-6.6-4.2-10.8-2.6c-3.9,1.4-5.6,4-5.6,8.1
		C404,345.1,403.9,350.3,403.9,355.6z"/>
	<path class="st0" d="M389,183.5c5.2,0,10.5,0,15.7,0c0.9,0,2-0.1,2.7,0.4c0.9,0.6,2,1.7,2.1,2.7c0.1,1.1-0.7,2.6-1.6,3.3
		c-1.1,0.8-2.6,1-4,1.3c-4.1,0.9-4.7,1.6-4.9,5.9c-0.2,4.9-0.5,9.8-0.8,14.7c-0.6,11.6-1.1,23.3-1.6,34.9c-0.1,2.7,0.3,5.5,0.8,8.2
		c1,5.5,4.2,9.4,9.5,11.3c7.3,2.7,14.8,2.6,21.9-0.8c6.3-2.9,9.7-8.2,9.6-15.1c-0.3-13-0.8-26-1.4-38.9c-0.2-4.9-0.6-9.8-1-14.7
		c-0.2-2.9-1.9-4.5-4.6-5.1c-1.4-0.3-2.8-0.6-4.1-1c-1.8-0.5-2.8-1.9-2.7-3.7c0.1-2,1.4-3.1,3.2-3.2c8.2-0.1,16.5-0.2,24.7,0
		c1,0,2.5,1.5,3,2.7c0.7,1.6-0.2,3.1-1.9,3.8c-1.7,0.6-3.5,1-5.3,1.5c-3,0.9-4,2.1-3.8,5.3c0.5,9.9,1.2,19.8,1.8,29.7
		c0.4,7.5,0.9,15,1,22.5c0.2,14.6-8.7,22.8-21.1,25.9c-11.3,2.9-22.6,2.3-33.6-1.8c-10.5-3.9-16.8-12.7-16.5-24
		c0.3-11.4,1.1-22.8,1.7-34.2c0.3-6.3,0.8-12.6,1.1-19c0.2-3-0.5-3.8-3.5-4.5c-1.6-0.4-3.2-0.8-4.8-1.3c-1.8-0.6-2.9-1.7-2.6-3.7
		c0.3-1.9,1.6-2.9,3.5-2.9c4.3-0.1,8.7-0.1,13-0.1C386,183.5,387.5,183.5,389,183.5C389,183.5,389,183.5,389,183.5z"/>
	<path class="st0" d="M485.5,221.3c3-2.1,5.6-4.1,8.5-5.8c5.6-3.4,11.6-5.3,18.3-4c8.1,1.6,13.9,7.8,14.2,16.1
		c0.4,8.7,0.3,17.5,0.4,26.2c0,3.3,0,6.7,0,10c0,2,0.9,3.3,2.9,3.8c0.3,0.1,0.6,0.2,1,0.3c1.8,0.6,3.3,1.5,3.1,3.7
		c-0.2,2.2-2,2.7-3.9,2.7c-4.6,0-9.2,0-13.7,0c-3.6,0-7.2,0-10.7,0c-2,0-3.8-0.6-4-2.9c-0.2-2.2,1.3-3.3,3.3-3.7
		c2.4-0.4,3.3-1.9,3.3-4.2c0-10.1,0.2-20.2-0.1-30.2c-0.2-8.5-5.8-12.3-13.9-9.5c-2.6,0.9-5,2.6-7.3,4.2c-0.8,0.5-1.3,2-1.3,3
		c-0.1,11-0.1,22,0,33c0,1.1,1.2,2.3,2.1,3.2c0.5,0.5,1.8,0.4,2.2,0.9c0.9,1,1.9,2.2,1.9,3.3c0,0.9-1.5,2.2-2.5,2.5
		c-2,0.5-4.1,0.4-6.2,0.4c-6.1,0-12.2,0-18.2,0c-1.1,0-2.2-0.1-3.2-0.4c-2.3-0.7-2.8-3.4-1-4.9c0.5-0.4,1.1-0.8,1.7-1
		c4-1.1,4.3-1.7,4.3-6.3c0-11.2,0-22.3,0-33.5c0-3.4-0.3-3.8-3.7-4.3c-0.3,0-0.7,0-1-0.1c-0.9-0.6-2.5-1.3-2.6-2.1
		c0-1.1,0.7-3,1.6-3.4c6-2.4,12.1-4.7,18.3-6.5c4.1-1.2,6.1,0.9,6.1,5.1C485.5,218.2,485.5,219.6,485.5,221.3z"/>
	<path class="st0" d="M526.9,378.1c-6.6,5.9-14.2,7.6-22.5,6.2c-11-1.9-16.3-12.7-10.9-21.8c2.1-3.5,5.5-5.5,9.2-6.9
		c5.4-2.1,11-2.3,16.7-2.2c1.9,0,3.8,0,5.9,0c0.1-0.3,0.2-0.6,0.2-1c0-6.2,0.1-12.5,0-18.7c-0.1-5.6-4-8.4-8.8-6.4
		c-1.3,0.6-2.7,2.1-3.1,3.5c-0.6,2-0.4,4.3-0.4,6.4c0,3.8-1.2,7-4.8,8.6c-3.9,1.8-7.9,2.1-11.7-0.3c-2.7-1.7-3.1-4.6-2.5-7.6
		c0.9-4.8,4.3-7.8,8.3-10.1c6.9-4,14.5-4.8,22.2-4.5c3.5,0.2,7,0.8,10.3,1.8c7.3,2.4,11.2,8,11.2,15.6c0.1,10.1,0,20.2,0,30.2
		c0,0.7-0.2,1.4,0.1,2c0.4,1.1,0.9,2.6,1.8,2.9c0.9,0.3,2.2-0.6,3.2-1.1c0.7-0.3,1.4-0.9,2.1-1.3c0.1,0.9,0.5,2,0.2,2.8
		c-1.3,4.3-4.5,6.7-8.6,7.9c-3.8,1.1-7.6,1-11.4,0C530.4,383.5,528.3,381.4,526.9,378.1z M525.5,366.4
		C525.5,366.4,525.5,366.4,525.5,366.4c0-2.3,0.1-4.7,0-7c0-0.8-0.6-1.9-1.1-2.1c-4.5-1.5-10.4-0.4-11.6,5.2c-0.6,2.9-0.6,6.2,0,9.1
		c0.9,5,7.1,7.2,11.3,4.4c0.7-0.5,1.4-1.7,1.4-2.6C525.6,371,525.5,368.7,525.5,366.4z"/>
	<path class="st0" d="M656.9,243.5c0.3,12.6,11.6,21.1,24,18.5c4.7-1,8.5-3.2,11.3-7.1c0.3-0.5,0.7-0.9,1.1-1.4
		c1.1-1.2,2.4-2.8,3.9-1.6c1,0.8,1.7,2.9,1.6,4.4c-0.6,5.2-3.2,9.4-7.2,12.7c-13.3,10.8-36.3,8.2-46.7-5.5
		c-4.8-6.3-6.3-13.8-5.9-21.5c0.4-8.5,3.3-16.1,9.3-22.3c6.8-7,15.5-9.1,24.9-8.8c6,0.2,11.7,1.5,16.7,5.2
		c6.9,5.2,9.4,12.3,9.1,20.6c-0.1,4.1-2.7,6.6-7.2,6.8c-5.7,0.3-11.3,0.1-17,0.1C668.9,243.5,663,243.5,656.9,243.5z M656.2,237.5
		c5.4,0,10.6,0,15.7,0c1.9,0,3.9,0.2,5.7-0.2c0.9-0.2,2.3-1.6,2.2-2.3c-0.3-3.5-0.5-7.2-1.7-10.4c-3.3-8.6-13.6-7.5-17.7-1.8
		C657.3,227,656.2,231.8,656.2,237.5z"/>
	<path class="st0" d="M786.2,210.5c2,0.5,5.9,1.4,9.7,2.6c2.3,0.7,4.2,0.8,6.2-0.9c2.9-2.5,4.7-1.9,5.8,1.8
		c1.2,4.2,2.2,8.5,3.2,12.8c0.2,1,0.4,2.1,0.1,3c-0.4,1.1-1.2,2.4-2.1,2.7c-0.9,0.3-2.5-0.1-3.3-0.8c-1.3-1.1-2.2-2.7-3.1-4.2
		c-4.3-6.3-10-10.1-17.9-9.8c-5.3,0.2-8.5,4.1-7.6,8.9c0.5,2.6,2,4.1,4.4,4.9c6.2,2,12.5,3.9,18.7,6c5.7,2,10.4,5.3,12.5,11.3
		c4.1,11.9-2.4,23.1-14.9,25.7c-6.7,1.4-13.4,1.5-19.9-1c-2.5-1-4.7-1-6.9,0.9c-2.2,1.8-4.1,1.4-5-1c-1.9-5.3-3.7-10.7-5.2-16.1
		c-0.8-2.9,1.3-5,4-4.3c0.9,0.2,1.8,1.1,2.5,1.9c2.1,2.6,3.9,5.4,6.2,7.8c5.4,5.7,12,7.2,19.4,5.2c3.1-0.8,4.9-3.3,5.1-6.4
		c0.2-3.4-1.2-5.8-4.5-6.9c-5.3-1.9-10.7-3.6-16.1-5.3c-4-1.2-7.7-3-10.9-5.9c-7.7-7-7.5-24.1,4.5-29.8
		C775.2,211.8,779.6,210.7,786.2,210.5z"/>
	<path class="st0" d="M479.7,333.4c0,13.3,0.1,26.7,0,40c0,3,0.4,5.4,3.9,6.1c0.8,0.2,1.3,1.4,1.9,2.2c-0.9,0.5-1.7,1.5-2.6,1.5
		c-9,0.1-18,0.1-27,0c-0.8,0-1.6-0.9-2.4-1.4c0.6-0.8,1.1-2.2,1.8-2.3c3.9-0.7,4.1-3.5,4.1-6.6c0-23.1,0-46.2,0-69.2
		c0-3.9,0-3.8-3.8-5.1c-0.8-0.3-1.3-1.1-1.9-1.7c0.8-0.8,1.4-2,2.3-2.3c4-1.5,8-2.7,12.1-3.9c2.5-0.8,4.9-1.6,7.4-2.2
		c3-0.7,4.2,0.3,4.2,3.4c0,5.4,0,10.8,0,16.3C479.7,316.6,479.7,325,479.7,333.4z"/>
	<path class="st0" d="M610.8,259.6c3.4-8.9,6.5-17.3,9.7-25.7c1.2-3.3,2.5-6.7,3.5-10.1c0.8-2.6,0.2-3.7-2.4-4.5
		c-1-0.3-2.3-0.3-3.1-0.8c-1-0.7-2.3-1.8-2.3-2.7c0-0.9,1.4-2.7,2.2-2.7c6.8-0.2,13.6-0.2,20.4,0c0.8,0,2.1,1.8,2.1,2.8
		c0,0.9-1.3,2.4-2.2,2.7c-2.5,0.7-4.1,2-5.1,4.3c-3.6,8.9-7.2,17.9-10.7,26.8c-2.7,6.8-5.4,13.6-8,20.4c-1.1,2.9-3.1,4.4-6.2,4.5
		c-1.2,0-2.3,0-3.5,0c-7.5,0.1-8.2-0.5-11-7.5c-5.8-14.7-11.8-29.3-17.6-44c-0.8-2-1.8-3.7-4.2-4.2c-1.8-0.4-3.3-1.3-3-3.6
		c0.3-2.4,2.2-2.7,4.1-2.7c8-0.1,16,0,24,0c1.5,0,3-0.1,4.5,0c1.6,0.2,3.2,0.7,3.3,2.7c0.2,2.1-1,2.9-2.9,3.4
		c-6.4,1.5-6.7,1.9-4.4,8c3.9,10.4,8,20.8,12,31.2C610.1,258.2,610.3,258.6,610.8,259.6z"/>
	<path class="st0" d="M729,222.7c1.8-2.5,3.2-4.8,5-6.7c5.1-5.9,15-6.8,20.5-1.9c4.8,4.3,5.5,14.9,1.4,19.8c-2.3,2.8-6,3.7-9.5,2.4
		c-3.3-1.2-4.8-3.5-4.9-7.3c0-0.4,0.1-0.9,0-1.2c-0.5-1.6-0.8-4.1-1.8-4.4c-1.5-0.5-3.8,0.2-5.2,1.1c-3.7,2.5-4.6,6.7-4.8,10.8
		c-0.3,9.3-0.2,18.6-0.3,28c0,2.2,0.9,3.4,3.1,3.6c1.9,0.2,3.8,0.6,5.7,0.9c1.8,0.3,2.8,1.5,2.7,3.3c-0.1,1.7-1.2,2.7-2.9,2.8
		c-4.2,0.1-8.5,0.2-12.7,0.3c-5.5,0-11,0-16.5,0c-0.9,0-2,0.1-2.7-0.3c-1-0.6-2.6-1.5-2.6-2.4c-0.1-1.1,1-3.1,1.8-3.3
		c5.2-1,5.1-4.6,5.1-8.6c-0.1-10.4,0-20.8,0-31.2c0-3.7-0.2-4-3.8-4.4c-1.7-0.2-3.4-0.4-3.7-2.6c-0.3-2.2,1.2-3.1,2.9-3.7
		c5.7-2,11.4-4.2,17.2-5.9c3.2-1,4.6,0.2,5.1,3.6C728.5,217.6,728.7,219.9,729,222.7z"/>
	<path class="st0" d="M563.2,239.6c0,7.6,0,15.2,0,22.7c0,3.8,0.4,4.3,3.9,5.2c1.8,0.5,3.2,1.3,3.1,3.3c-0.1,2.2-1.7,3-3.6,3.1
		c-6.2,0.1-12.3,0.1-18.5,0.1c-2.4,0-4.8,0-7.2-0.1c-1.6-0.1-3.2-0.7-3.5-2.6c-0.2-2,1.1-3,2.8-3.6c4.2-1.5,4.2-1.5,4.2-6.1
		c0-11.2,0-22.5,0-33.7c0-3.6-0.4-4-3.9-4.2c-1.7-0.1-3.2-0.5-3.5-2.4c-0.3-1.9,0.8-3,2.4-3.6c5.3-1.9,10.6-3.9,15.9-5.7
		c0.8-0.3,1.6-0.4,2.4-0.4c3.7-0.3,5.3,1.1,5.3,4.8C563.3,224.1,563.2,231.8,563.2,239.6C563.2,239.6,563.2,239.6,563.2,239.6z"/>
	<path class="st0" d="M585,351.5c0,7.7,0.1,15.5,0,23.2c0,2.5,0.7,4.1,3.3,4.7c0.9,0.2,1.5,1.5,2.2,2.2c-0.9,0.6-1.8,1.6-2.7,1.6
		c-8.8,0.1-17.7,0.2-26.5,0.1c-0.9,0-1.7-1-2.5-1.6c0.7-0.8,1.3-2.2,2.1-2.3c3-0.6,3.5-2.5,3.5-5.1c-0.1-12,0-24,0-36
		c0-3.7,0-3.7-3.6-4.7c-0.8-0.2-1.9-1.1-1.9-1.5c0.1-0.8,0.8-2,1.5-2.2c6.6-2.2,13.2-4.5,19.9-6.3c3.3-0.9,4.6,0.3,4.6,3.9
		C585,335.5,585,343.5,585,351.5z"/>
	<path class="st0" d="M573.8,316.5c-7.4-0.5-11.3-3.5-12.1-9.4c-0.7-4.6,1.6-8.9,5.8-10.9c3.3-1.5,6.8-2,10.4-0.9
		c5.9,1.7,8.8,6.4,7.9,12.3c-0.8,5.2-5.7,8.9-11.6,8.9C574,316.5,573.6,316.4,573.8,316.5z"/>
	<path class="st0" d="M552.1,182.4c6.9,0,11.1,3,12,8.2c1,5.8-2.8,10.7-9.4,11.4c-2.5,0.3-5.4-0.1-7.8-0.9
		c-4.8-1.6-6.9-5.4-6.2-10.1c0.7-4.9,4-8,8.9-8.6C550.6,182.5,551.6,182.4,552.1,182.4z"/>
</g>
</svg>
